name processed_emg_signals
nRows=49
nColumns=7
 
endheader
time	RGLTMED	RRF	RADDLONG	RST	RTA	RGM
0.0	0.1735768522885399	0.0014222067767713	0.0017210335387643	0.1148255774023826	0.0046595348863659	0.026821742473282
0.001	0.1554456568353024	0.0018636893705898	0.0010201312740473	0.119920015075872	0.0018705098442013	0.0344372631499994
0.002	0.1374094401024648	0.0023053201558735	0.000321315084878	0.125040771356727	0.0009002740623687	0.042033478886503
0.003	0.1194789989248524	0.0027468385900235	0.000374981406122	0.130184606628783	0.0036509213798906	0.0496055275696203
0.004	0.1016650067949035	0.0031879844893923	0.001068326645923	0.1353482582683403	0.0063795596051824	0.0571485646073148
0.005	0.0839779997170229	0.0036284984121998	0.001758291724596	0.1405284462006631	0.0090843421516668	0.0646577696700733
0.006	0.0664283623699484	0.0040681220385401	0.002444450943876	0.1457218784171988	0.0117634512709346	0.0721283533935688
0.007	0.0490263146089466	0.0045065985463584	0.0031263823795469	0.1509252564252181	0.0144151009214646	0.0795555640267031
0.008	0.0317818983385421	0.0049436729823383	0.0038036684364922	0.1561352806051663	0.0170375395768315	0.086934694009824
0.009000000000000001	0.0147049647849867	0.0053790926268179	0.0044758963953271	0.1613486554547781	0.0196290529658914	0.0942610864684309
0.01	0.0021948378041478	0.0058126073519122	0.0051426589495584	0.1665620947027642	0.0221879667376684	0.1015301416082695
0.011	0.0189080760082563	0.0062439699720703	0.0058035547323263	0.1717723262782582	0.0247126490439251	0.1087373229981741
0.012	0.0354255426072195	0.0066729365863688	0.0064581888318167	0.1769760971246311	0.0272015130327506	0.1158781637274461
0.013000000000000001	0.0517382674600145	0.0070992669118113	0.0071061732945041	0.1821701778477998	0.0296530192470119	0.1229482724249314
0.014	0.0678375278704219	0.0075227246070181	0.0077471276154697	0.1873513671897795	0.0320656779220544	0.1299433391274748
0.015	0.0837148584240064	0.0079430775856855	0.0083806792150493	0.1925164963183929	0.0344380511777704	0.1368591409859851
0.016	0.0993620602826275	0.0083600983192978	0.0090064639011894	0.1976624329240662	0.0367687551007868	0.1436915477977907
0.017	0.114771209924914	0.0087735641285877	0.0096241263168277	0.2027860851144186	0.0390564617131642	0.150436527354374
0.018000000000000002	0.1299346673235119	0.0091832574632809	0.0102333203717304	0.2078844050973994	0.041299900824473	0.1570901505938033
0.019	0.1448450835523728	0.0095889661697266	0.0108337096581998	0.2129543926440008	0.0434978617644752	0.1636485965474273
0.02	0.1594954078194961	0.0099904837460204	0.0114249678501352	0.2179930983227954	0.0456491949939149	0.1701081570707903
0.021	0.1738788939225075	0.0103876095842971	0.0120067790850189	0.2229976265001048	0.0477528135911756	0.176465241349347
0.022	0.1879891061260551	0.010780149199945	0.0125788383284058	0.2279651381016142	0.0498076946128216	0.1827163801707644
0.023	0.2018199244611976	0.0111679144475022	0.013140851720589	0.2328928531331341	0.0518128803263831	0.1888582299570915
0.024	0.2153655494476757	0.0115507237231032	0.0136925369051309	0.2377780529601063	0.0537674793141734	0.1948875765517844
0.025	0.2286205062405197	0.0119284021533285	0.0142336233389147	0.2426180823473963	0.0556706674473636	0.200801338757915
0.026000000000000002	0.2415796482032792	0.0123007817704197	0.0147638525834603	0.247410351262664	0.0575216887299681	0.2065965716250282
0.027	0.2542381599115372	0.0126677016737886	0.0152829785771922	0.2521523364480688	0.0593198560128018	0.2122704694829386
0.028	0.2665915595920426	0.013029008177893	0.0157907678884506	0.2568415827659818	0.0610645515778683	0.2178203687215079
0.029	0.2786357010045723	0.0133845549465022	0.0162869999490604	0.2614757043250536	0.0627552275941213	0.223243750315974
0.03	0.2903667747752624	0.0137342031134999	0.0167714672683221	0.266052385393565	0.0643914064458936	0.2285382420981166
0.031	0.3017813091915908	0.0140778213903226	0.0172439756273324	0.2705693811077689	0.065972680935646	0.2337016207742949
0.032	0.3128761704703336	0.0144152861602049	0.0177043442535274	0.2750245179836739	0.0674987143631688	0.2387318136924012
0.033	0.3236485625105794	0.0147464815593409	0.0181524059753761	0.2794156942415581	0.0689692404838185	0.2436269003607037
0.034	0.334096026144413	0.0150712995451623	0.0185880073571588	0.2837408799531531	0.0703840633488065	0.2483851137223338
0.035	0.3442164378981152	0.0153896399518604	0.0190110088137585	0.2879981170221307	0.0717430570309339	0.2530048411898689
0.036000000000000004	0.354008008276935	0.0157014105333674	0.0194212847054587	0.2921855190092022	0.0730461652394384	0.2574846254447128
0.037	0.3634692795865126	0.0160065269939706	0.0198187234127162	0.2963012708136054	0.0742934008278539	0.2618231650060893
0.038	0.3725991233043946	0.0163049130067204	0.0202032273909208	0.3003436282232506	0.0754848451989547	0.2660193145742355
0.039	0.3813967370154859	0.016596500219825	0.0205747132052051	0.3043109173461271	0.0766206476109247	0.2700720851521948
0.04	0.3898616409257497	0.0168812282511906	0.0209331115453061	0.3082015339357796	0.0777010243889556	0.2739806439504431
0.041	0.3979936739685866	0.0171590446712944	0.0212783672205217	0.3120139426236228	0.0787262580464783	0.2777443140784385
0.042	0.4057929895182329	0.017429904974584	0.0216104391347409	0.3157466760707306	0.0796966963201901	0.2813625740271006
0.043000000000000003	0.4132600507240073	0.0176937725396608	0.0219293002415207	0.3193983340514976	0.0806127511229656	0.2848350569461144
0.044	0.420395625478599	0.0179506185784831	0.0222349374791459	0.3229675824813803	0.0814748974186252	0.2881615497197347
0.045	0.4272007810328805	0.0182004220748713	0.0225273516855918	0.3264531524003992	0.0822836720224198	0.2913419918445624
0.046	0.4336768782691017	0.0184431697125814	0.0228065574933378	0.3298538389233887	0.0830396723309074	0.2943764741126404
0.047	0.4398255656440338	0.0186788557932023	0.0230725832040312	0.3331685001671449	0.0837435549847507	0.2972652371032362
0.048	0.4456487728135873	0.018907482144139	0.0233254706430578	0.3363960561639675	0.0843960344678039	0.3000086694867193
